<svg xmlns="http://www.w3.org/2000/svg" style="overflow: visible;" data-bbox="147.35195302816328 191.9999959697384 217.29609394367344 128.00000806052321" viewBox="147.35 192 160.58 128"><g data-uid="o_f8cblbmih_13"><path text="b" fill="rgba(255,244,244,1)" space="preserve" text-anchor="middle" offset="0.5" font-scale="contain" font-size="48" font-family="Bungee Inline" transform="matrix(2.979530096054077, 0, 0, 2.979530096054077, 189.33352661132812, 302.7200012207031)" font-style="normal" font-weight="400" data-uid="o_f8cblbmih_5" data-fl-textpath="" d="M 6.07 0L 6.07 0L-12.36 0Q-13.27 0 -13.68-0.41Q-14.09-0.82 -14.09-1.73L-14.09-1.73L-14.09-32.83Q-14.09-33.74 -13.68-34.15Q-13.27-34.56 -12.36-34.56L-12.36-34.56L 2.95-34.56Q 7.66-34.56  9.91-32.76Q 12.17-30.96  12.17-27.22L 12.17-27.22L 12.17-24.91Q 12.17-22.9  11.47-21.62Q 10.78-20.35  9.34-19.73L 9.34-19.73Q 12.41-19.44  13.9-17.62Q 15.38-15.79  15.38-12.29L 15.38-12.29L 15.38-7.87Q 15.38-3.84  13.1-1.92Q 10.82 0  6.07 0ZM-8.76-30.24L-8.76-4.32L 4.15-4.32Q 6.17-4.32  7.42-4.68Q 8.66-5.04  9.31-5.66Q 9.96-6.29  10.2-7.18Q 10.44-8.06  10.44-9.12L 10.44-9.12L 10.44-12.19Q 10.44-13.39  10.22-14.4Q 10.01-15.41  9.34-16.15Q 8.66-16.9  7.42-17.3Q 6.17-17.71  4.2-17.71L 4.2-17.71Q 6.26-18.24  6.77-19.44Q 7.27-20.64  7.27-22.08L 7.27-22.08L 7.27-25.15Q 7.27-26.21  7.03-27.12Q 6.79-28.03  6.12-28.73Q 5.45-29.42  4.2-29.83Q 2.95-30.24  0.98-30.24L 0.98-30.24L-8.76-30.24ZM-8.28-29.76L 0.98-29.76Q 4.58-29.76  5.69-28.42Q 6.79-27.07  6.79-25.15L 6.79-25.15L 6.79-22.08Q 6.79-21.22  6.62-20.42Q 6.46-19.63  5.86-19.03Q 5.26-18.43  4.1-18.07Q 2.95-17.71  0.98-17.71L 0.98-17.71L-8.28-17.71L-8.28-29.76ZM 0.79-26.4L-3.29-26.4L-3.29-21.22L 0.79-21.22Q 1.7-21.22  2.16-21.7Q 2.62-22.18  2.62-23.14L 2.62-23.14L 2.62-24.48Q 2.62-25.44  2.16-25.92Q 1.7-26.4  0.79-26.4L 0.79-26.4ZM-8.28-17.23L 4.2-17.23Q 7.8-17.23  8.88-15.79Q 9.96-14.35  9.96-12.19L 9.96-12.19L 9.96-9.12Q 9.96-7.15  8.86-5.98Q 7.75-4.8  4.15-4.8L 4.15-4.8L-8.28-4.8L-8.28-17.23ZM 2.95-13.82L-3.29-13.82L-3.29-8.16L 2.95-8.16Q 3.86-8.16  4.32-8.64Q 4.78-9.12  4.78-10.08L 4.78-10.08L 4.78-11.95Q 4.78-12.91  4.32-13.37Q 3.86-13.82  2.95-13.82L 2.95-13.82Z"/><path text="g" fill="rgba(255,244,244,1)" space="preserve" text-anchor="middle" offset="0.5" font-scale="contain" font-size="48" font-family="Bungee Inline" transform="matrix(2.539207696914673, 0, 0, 2.8798553943634033, 271.2459411621094, 320)" font-style="normal" font-weight="400" data-uid="o_f8cblbmih_6" data-fl-textpath="" d="M 12.718 0L 12.718 0L-2.402 0Q-8.402 0 -11.302-2.4Q-14.212-4.8 -14.212-9.79L-14.212-9.79L-14.212-24.77Q-14.212-29.76 -11.302-32.16Q-8.402-34.56 -2.402-34.56L-2.402-34.56L 9.598-34.56Q 10.508-34.56  10.918-34.15Q 11.328-33.74  11.328-32.83L 11.328-32.83L 11.328-27.02Q 11.328-26.11  10.918-25.7Q 10.508-25.3  9.598-25.3L 9.598-25.3L-0.382-25.3Q-1.872-25.3 -2.592-24.7Q-3.312-24.1 -3.312-22.9L-3.312-22.9L-3.312-11.42Q-3.312-10.22 -2.762-9.65Q-2.212-9.07 -1.102-9.07L-1.102-9.07L 3.548-9.07L 3.548-16.56Q 3.548-17.47  3.958-17.88Q 4.368-18.29  5.278-18.29L 5.278-18.29L 12.718-18.29Q 13.628-18.29  14.038-17.88Q 14.448-17.47  14.448-16.56L 14.448-16.56L 14.448-1.73Q 14.448-0.82  14.038-0.41Q 13.628 0  12.718 0ZM-0.332-4.32L-0.332-4.32L 9.218-4.32L 9.218-13.97L 8.738-13.97L 8.738-4.8L-0.332-4.8Q-5.182-4.8 -6.842-6.1Q-8.492-7.39 -8.492-10.51L-8.492-10.51L-8.492-23.95Q-8.492-27.12 -7.012-28.44Q-5.522-29.76 -1.292-29.76L-1.292-29.76L 7.008-29.76L 7.008-30.24L-1.292-30.24Q-5.902-30.24 -7.442-28.8Q-8.972-27.36 -8.972-23.95L-8.972-23.95L-8.972-10.51Q-8.972-8.83 -8.612-7.66Q-8.252-6.48 -7.292-5.74Q-6.332-4.99 -4.652-4.66Q-2.972-4.32 -0.332-4.32Z"/><path d="M348.07 174 174 0 0 174l16 16-16 16 174 174 174-174-16-16ZM2.83 174 174 2.83 345.24 174l-14.62 14.62L174 32.08 17.45 188.66Zm326.37 16L174 345.24 18.87 190.07 174 34.91Zm16 16L174 377.32 2.83 206.11l14.62-14.62L174 348.07 330.62 191.49Z" transform="matrix(0.3368421196937561, 0, 0, 0.3368421196937561, 176.53639221191406, 192)" fill="#d7cdcd" data-uid="o_f8cblbmih_9"/></g></svg>