<?xml version="1.0" standalone="no"?>
<!DOCTYPE svg PUBLIC "-//W3C//DTD SVG 20010904//EN"
 "http://www.w3.org/TR/2001/REC-SVG-20010904/DTD/svg10.dtd">
<svg version="1.0" xmlns="http://www.w3.org/2000/svg"
 width="200.000000pt" height="200.000000pt" viewBox="0 0 200.000000 200.000000"
 preserveAspectRatio="xMidYMid meet">

<g transform="translate(0.000000,200.000000) scale(0.100000,-0.100000)"
fill="#000000" stroke="none">
<path d="M0 1000 l0 -1000 1000 0 1000 0 0 1000 0 1000 -1000 0 -1000 0 0
-1000z m839 205 c16 -8 31 -22 35 -30 10 -26 7 -103 -4 -110 -15 -9 -12 -25 4
-25 8 0 22 -10 30 -22 16 -22 16 -22 16 9 0 85 42 113 170 113 l80 0 0 -50 c0
-54 4 -51 -75 -55 -22 -1 -46 -2 -53 -3 -10 -2 -12 -24 -10 -89 l3 -88 30 0
c29 0 30 2 30 42 0 53 9 61 63 55 l42 -4 0 -99 0 -99 -102 0 c-129 0 -164 16
-174 81 l-7 42 -18 -24 c-17 -23 -23 -24 -168 -27 l-151 -3 0 200 0 201 115 0
c82 0 124 -4 144 -15z m459 -362 c-14 -3 -18 -16 -20 -51 l-2 -47 -3 47 c-3
33 -9 48 -21 51 -9 3 1 5 23 5 22 0 32 -2 23 -5z m56 -20 l23 -27 18 27 c25
39 35 33 35 -23 0 -27 -4 -50 -10 -50 -5 0 -10 17 -10 38 l0 37 -19 -24 -18
-24 -17 24 -16 23 0 -37 c0 -20 -4 -37 -10 -37 -5 0 -10 23 -10 50 0 28 2 50
5 50 3 0 16 -12 29 -27z"/>
<path d="M678 1163 c23 -2 59 -2 80 0 20 2 1 4 -43 4 -44 0 -61 -2 -37 -4z"/>
<path d="M704 1116 c-11 -29 0 -51 26 -50 39 2 40 3 40 28 0 34 -55 52 -66 22z"/>
<path d="M821 1084 c0 -11 3 -14 6 -6 3 7 2 16 -1 19 -3 4 -6 -2 -5 -13z"/>
<path d="M1098 1083 c6 -2 18 -2 25 0 6 3 1 5 -13 5 -14 0 -19 -2 -12 -5z"/>
<path d="M805 1041 c-6 -5 -19 -11 -30 -14 -19 -4 -19 -5 1 -6 12 0 27 6 34
14 14 16 10 20 -5 6z"/>
<path d="M974 945 c0 -49 1 -71 3 -48 2 23 2 64 0 90 -2 26 -3 8 -3 -42z"/>
<path d="M834 1007 c15 -11 17 -24 15 -69 -2 -31 -1 -54 4 -51 4 2 7 28 7 57
0 49 -12 76 -34 76 -5 0 -2 -6 8 -13z"/>
<path d="M700 945 c0 -35 0 -35 44 -35 47 0 62 15 51 51 -5 15 -16 19 -51 19
-44 0 -44 0 -44 -35z"/>
<path d="M1140 855 l0 -44 -67 -4 -68 -3 73 -2 72 -2 0 50 c0 28 -2 50 -5 50
-3 0 -5 -20 -5 -45z"/>
<path d="M808 873 c7 -3 16 -2 19 1 4 3 -2 6 -13 5 -11 0 -14 -3 -6 -6z"/>
<path d="M970 836 c0 -2 8 -10 18 -17 15 -13 16 -12 3 4 -13 16 -21 21 -21 13z"/>
</g>
</svg>
