<svg xmlns="http://www.w3.org/2000/svg" xmlns:xlink="http://www.w3.org/1999/xlink" width="500" zoomAndPan="magnify" viewBox="0 0 375 374.999991" height="500" preserveAspectRatio="xMidYMid meet" version="1.0"><defs><g/><clipPath id="33d48b7296"><path d="M 60.304688 182.707031 L 328.804688 182.707031 L 328.804688 238.957031 L 60.304688 238.957031 Z M 60.304688 182.707031 " clip-rule="nonzero"/></clipPath></defs><g clip-path="url(#33d48b7296)"><path fill="#2c9683" d="M 60.304688 238.957031 L 328.570312 238.957031 L 328.570312 182.707031 L 60.304688 182.707031 Z M 317.28125 227.695312 L 71.59375 227.695312 L 71.59375 193.96875 L 317.28125 193.96875 Z M 317.28125 227.695312 " fill-opacity="1" fill-rule="nonzero"/></g><path fill="#2c9683" d="M 80.484375 220.964844 L 246.34375 220.964844 L 246.34375 200.699219 L 80.484375 200.699219 Z M 80.484375 220.964844 " fill-opacity="1" fill-rule="nonzero"/><g fill="#000000" fill-opacity="1"><g transform="translate(47.639203, 169.732397)"><g><path d="M 21.21875 0 L 4.578125 0 C 3.910156 0 3.425781 -0.144531 3.125 -0.4375 C 2.832031 -0.738281 2.6875 -1.222656 2.6875 -1.890625 L 2.6875 -8.046875 C 2.6875 -8.710938 2.832031 -9.195312 3.125 -9.5 C 3.425781 -9.800781 3.910156 -9.953125 4.578125 -9.953125 L 18.734375 -9.953125 C 19.191406 -9.953125 19.535156 -10.097656 19.765625 -10.390625 C 19.992188 -10.691406 20.109375 -11.050781 20.109375 -11.46875 C 20.109375 -12.070312 19.992188 -12.515625 19.765625 -12.796875 C 19.535156 -13.078125 19.191406 -13.234375 18.734375 -13.265625 L 10.84375 -14.375 C 8.382812 -14.71875 6.410156 -15.519531 4.921875 -16.78125 C 3.429688 -18.050781 2.6875 -20.160156 2.6875 -23.109375 L 2.6875 -28.640625 C 2.6875 -31.617188 3.648438 -33.90625 5.578125 -35.5 C 7.503906 -37.101562 10.171875 -37.90625 13.578125 -37.90625 L 28.328125 -37.90625 C 28.992188 -37.90625 29.472656 -37.753906 29.765625 -37.453125 C 30.066406 -37.148438 30.21875 -36.664062 30.21875 -36 L 30.21875 -29.734375 C 30.21875 -29.066406 30.066406 -28.582031 29.765625 -28.28125 C 29.472656 -27.988281 28.992188 -27.84375 28.328125 -27.84375 L 16.0625 -27.84375 C 15.601562 -27.84375 15.25 -27.691406 15 -27.390625 C 14.757812 -27.097656 14.640625 -26.722656 14.640625 -26.265625 C 14.640625 -25.804688 14.757812 -25.421875 15 -25.109375 C 15.25 -24.796875 15.601562 -24.617188 16.0625 -24.578125 L 23.90625 -23.53125 C 26.351562 -23.175781 28.332031 -22.367188 29.84375 -21.109375 C 31.351562 -19.847656 32.109375 -17.742188 32.109375 -14.796875 L 32.109375 -9.265625 C 32.109375 -6.285156 31.132812 -3.992188 29.1875 -2.390625 C 27.238281 -0.796875 24.582031 0 21.21875 0 Z M 21.21875 0 "/></g></g></g><g fill="#000000" fill-opacity="1"><g transform="translate(81.849729, 169.732397)"><g><path d="M 13.6875 0 L 5.53125 0 C 4.863281 0 4.378906 -0.144531 4.078125 -0.4375 C 3.773438 -0.738281 3.625 -1.222656 3.625 -1.890625 L 3.625 -36 C 3.625 -36.664062 3.773438 -37.148438 4.078125 -37.453125 C 4.378906 -37.753906 4.863281 -37.90625 5.53125 -37.90625 L 21.640625 -37.90625 C 26.410156 -37.90625 29.671875 -36.957031 31.421875 -35.0625 C 33.179688 -33.164062 34.0625 -30.691406 34.0625 -27.640625 L 34.0625 -20.890625 C 34.0625 -17.835938 33.179688 -15.363281 31.421875 -13.46875 C 29.671875 -11.582031 26.410156 -10.640625 21.640625 -10.640625 L 15.578125 -10.640625 L 15.578125 -1.890625 C 15.578125 -1.222656 15.425781 -0.738281 15.125 -0.4375 C 14.832031 -0.144531 14.351562 0 13.6875 0 Z M 15.46875 -28.0625 L 15.46875 -20.109375 L 20.21875 -20.109375 C 21.226562 -20.109375 21.890625 -20.367188 22.203125 -20.890625 C 22.523438 -21.421875 22.6875 -22.019531 22.6875 -22.6875 L 22.6875 -25.484375 C 22.6875 -26.148438 22.523438 -26.742188 22.203125 -27.265625 C 21.890625 -27.796875 21.226562 -28.0625 20.21875 -28.0625 Z M 15.46875 -28.0625 "/></g></g></g><g fill="#000000" fill-opacity="1"><g transform="translate(117.744471, 169.732397)"><g><path d="M 35.75 -9.953125 C 35.75 -8.335938 35.507812 -6.867188 35.03125 -5.546875 C 34.5625 -4.234375 33.71875 -3.113281 32.5 -2.1875 C 31.289062 -1.257812 29.625 -0.53125 27.5 0 C 25.375 0.53125 22.679688 0.796875 19.421875 0.796875 C 16.160156 0.796875 13.457031 0.53125 11.3125 0 C 9.175781 -0.53125 7.5 -1.257812 6.28125 -2.1875 C 5.070312 -3.113281 4.226562 -4.234375 3.75 -5.546875 C 3.28125 -6.867188 3.046875 -8.335938 3.046875 -9.953125 L 3.046875 -27.90625 C 3.046875 -29.519531 3.28125 -30.984375 3.75 -32.296875 C 4.226562 -33.609375 5.070312 -34.738281 6.28125 -35.6875 C 7.5 -36.632812 9.175781 -37.367188 11.3125 -37.890625 C 13.457031 -38.421875 16.160156 -38.6875 19.421875 -38.6875 C 22.679688 -38.6875 25.375 -38.421875 27.5 -37.890625 C 29.625 -37.367188 31.289062 -36.632812 32.5 -35.6875 C 33.71875 -34.738281 34.5625 -33.609375 35.03125 -32.296875 C 35.507812 -30.984375 35.75 -29.519531 35.75 -27.90625 Z M 15 -11.84375 C 15 -11.144531 15.257812 -10.554688 15.78125 -10.078125 C 16.3125 -9.609375 17.523438 -9.375 19.421875 -9.375 C 21.316406 -9.375 22.523438 -9.609375 23.046875 -10.078125 C 23.578125 -10.554688 23.84375 -11.144531 23.84375 -11.84375 L 23.84375 -26 C 23.84375 -26.664062 23.578125 -27.234375 23.046875 -27.703125 C 22.523438 -28.179688 21.316406 -28.421875 19.421875 -28.421875 C 17.523438 -28.421875 16.3125 -28.179688 15.78125 -27.703125 C 15.257812 -27.234375 15 -26.664062 15 -26 Z M 15 -11.84375 "/></g></g></g><g fill="#000000" fill-opacity="1"><g transform="translate(156.533949, 169.732397)"><g><path d="M 15.53125 -28.421875 L 15.53125 -21.6875 L 19.484375 -21.6875 C 20.390625 -21.6875 21 -21.921875 21.3125 -22.390625 C 21.632812 -22.867188 21.796875 -23.457031 21.796875 -24.15625 L 21.796875 -25.953125 C 21.796875 -26.648438 21.632812 -27.234375 21.3125 -27.703125 C 21 -28.179688 20.390625 -28.421875 19.484375 -28.421875 Z M 13.640625 0 L 5.53125 0 C 4.863281 0 4.378906 -0.144531 4.078125 -0.4375 C 3.773438 -0.738281 3.625 -1.222656 3.625 -1.890625 L 3.625 -36 C 3.625 -36.664062 3.773438 -37.148438 4.078125 -37.453125 C 4.378906 -37.753906 4.863281 -37.90625 5.53125 -37.90625 L 23.0625 -37.90625 C 26.988281 -37.90625 29.695312 -37.085938 31.1875 -35.453125 C 32.675781 -33.816406 33.421875 -31.703125 33.421875 -29.109375 L 33.421875 -26.6875 C 33.421875 -25.21875 33.203125 -23.960938 32.765625 -22.921875 C 32.328125 -21.890625 31.566406 -21.144531 30.484375 -20.6875 C 32.378906 -20.476562 33.910156 -19.707031 35.078125 -18.375 C 36.253906 -17.039062 36.84375 -15.269531 36.84375 -13.0625 L 36.84375 -1.890625 C 36.84375 -1.222656 36.691406 -0.738281 36.390625 -0.4375 C 36.097656 -0.144531 35.617188 0 34.953125 0 L 26.796875 0 C 26.128906 0 25.644531 -0.144531 25.34375 -0.4375 C 25.050781 -0.738281 24.90625 -1.222656 24.90625 -1.890625 L 24.90625 -9.953125 C 24.90625 -10.722656 24.753906 -11.289062 24.453125 -11.65625 C 24.148438 -12.03125 23.632812 -12.21875 22.90625 -12.21875 L 15.53125 -12.21875 L 15.53125 -1.890625 C 15.53125 -1.222656 15.378906 -0.738281 15.078125 -0.4375 C 14.785156 -0.144531 14.304688 0 13.640625 0 Z M 13.640625 0 "/></g></g></g><g fill="#000000" fill-opacity="1"><g transform="translate(195.639214, 169.732397)"><g><path d="M 21.53125 0 L 13 0 C 12.332031 0 11.847656 -0.144531 11.546875 -0.4375 C 11.253906 -0.738281 11.109375 -1.222656 11.109375 -1.890625 L 11.109375 -27.734375 L 3.375 -27.734375 C 2.707031 -27.734375 2.222656 -27.882812 1.921875 -28.1875 C 1.617188 -28.488281 1.46875 -28.972656 1.46875 -29.640625 L 1.46875 -36 C 1.46875 -36.664062 1.617188 -37.148438 1.921875 -37.453125 C 2.222656 -37.753906 2.707031 -37.90625 3.375 -37.90625 L 31.15625 -37.90625 C 31.820312 -37.90625 32.304688 -37.753906 32.609375 -37.453125 C 32.910156 -37.148438 33.0625 -36.664062 33.0625 -36 L 33.0625 -29.640625 C 33.0625 -28.972656 32.910156 -28.488281 32.609375 -28.1875 C 32.304688 -27.882812 31.820312 -27.734375 31.15625 -27.734375 L 23.421875 -27.734375 L 23.421875 -1.890625 C 23.421875 -1.222656 23.269531 -0.738281 22.96875 -0.4375 C 22.675781 -0.144531 22.195312 0 21.53125 0 Z M 21.53125 0 "/></g></g></g><g fill="#000000" fill-opacity="1"><g transform="translate(230.165536, 169.732397)"><g><path d="M 4.6875 0 C 4.019531 0 3.535156 -0.144531 3.234375 -0.4375 C 2.941406 -0.738281 2.796875 -1.222656 2.796875 -1.890625 L 2.796875 -8.15625 C 2.796875 -8.820312 2.941406 -9.300781 3.234375 -9.59375 C 3.535156 -9.894531 4.019531 -10.046875 4.6875 -10.046875 L 9.890625 -10.046875 L 9.890625 -27.734375 L 4.6875 -27.734375 C 4.019531 -27.734375 3.535156 -27.882812 3.234375 -28.1875 C 2.941406 -28.488281 2.796875 -28.972656 2.796875 -29.640625 L 2.796875 -36 C 2.796875 -36.664062 2.941406 -37.148438 3.234375 -37.453125 C 3.535156 -37.753906 4.019531 -37.90625 4.6875 -37.90625 L 27.109375 -37.90625 C 27.773438 -37.90625 28.253906 -37.753906 28.546875 -37.453125 C 28.847656 -37.148438 29 -36.664062 29 -36 L 29 -29.640625 C 29 -28.972656 28.847656 -28.488281 28.546875 -28.1875 C 28.253906 -27.882812 27.773438 -27.734375 27.109375 -27.734375 L 22 -27.734375 L 22 -10.046875 L 27.109375 -10.046875 C 27.773438 -10.046875 28.253906 -9.894531 28.546875 -9.59375 C 28.847656 -9.300781 29 -8.820312 29 -8.15625 L 29 -1.890625 C 29 -1.222656 28.847656 -0.738281 28.546875 -0.4375 C 28.253906 -0.144531 27.773438 0 27.109375 0 Z M 4.6875 0 "/></g></g></g><g fill="#000000" fill-opacity="1"><g transform="translate(262.007656, 169.732397)"><g><path d="M 13.375 0 L 5.53125 0 C 4.863281 0 4.378906 -0.144531 4.078125 -0.4375 C 3.773438 -0.738281 3.625 -1.222656 3.625 -1.890625 L 3.625 -36 C 3.625 -36.664062 3.773438 -37.148438 4.078125 -37.453125 C 4.378906 -37.753906 4.863281 -37.90625 5.53125 -37.90625 L 14 -37.90625 C 14.5625 -37.90625 15.023438 -37.78125 15.390625 -37.53125 C 15.765625 -37.289062 16.109375 -36.890625 16.421875 -36.328125 L 21.15625 -27.734375 C 21.332031 -27.421875 21.484375 -27.191406 21.609375 -27.046875 C 21.734375 -26.910156 21.898438 -26.84375 22.109375 -26.84375 L 22.578125 -26.84375 C 22.796875 -26.84375 22.960938 -26.910156 23.078125 -27.046875 C 23.203125 -27.191406 23.351562 -27.421875 23.53125 -27.734375 L 28.21875 -36.328125 C 28.53125 -36.890625 28.867188 -37.289062 29.234375 -37.53125 C 29.609375 -37.78125 30.078125 -37.90625 30.640625 -37.90625 L 39.171875 -37.90625 C 39.835938 -37.90625 40.316406 -37.753906 40.609375 -37.453125 C 40.910156 -37.148438 41.0625 -36.664062 41.0625 -36 L 41.0625 -1.890625 C 41.0625 -1.222656 40.910156 -0.738281 40.609375 -0.4375 C 40.316406 -0.144531 39.835938 0 39.171875 0 L 31.0625 0 C 30.394531 0 29.910156 -0.144531 29.609375 -0.4375 C 29.304688 -0.738281 29.15625 -1.222656 29.15625 -1.890625 L 29.15625 -20.421875 L 26.0625 -14.6875 C 25.738281 -14.09375 25.359375 -13.660156 24.921875 -13.390625 C 24.484375 -13.128906 23.929688 -13 23.265625 -13 L 21.15625 -13 C 20.488281 -13 19.9375 -13.128906 19.5 -13.390625 C 19.0625 -13.660156 18.6875 -14.09375 18.375 -14.6875 L 15.265625 -20.421875 L 15.265625 -1.890625 C 15.265625 -1.222656 15.113281 -0.738281 14.8125 -0.4375 C 14.519531 -0.144531 14.039062 0 13.375 0 Z M 13.375 0 "/></g></g></g><g fill="#000000" fill-opacity="1"><g transform="translate(306.69187, 169.732397)"><g><path d="M 29.953125 0 L 5.53125 0 C 4.863281 0 4.378906 -0.144531 4.078125 -0.4375 C 3.773438 -0.738281 3.625 -1.222656 3.625 -1.890625 L 3.625 -36 C 3.625 -36.664062 3.773438 -37.148438 4.078125 -37.453125 C 4.378906 -37.753906 4.863281 -37.90625 5.53125 -37.90625 L 29.953125 -37.90625 C 30.617188 -37.90625 31.097656 -37.753906 31.390625 -37.453125 C 31.691406 -37.148438 31.84375 -36.664062 31.84375 -36 L 31.84375 -29.84375 C 31.84375 -29.175781 31.691406 -28.691406 31.390625 -28.390625 C 31.097656 -28.097656 30.617188 -27.953125 29.953125 -27.953125 L 15.421875 -27.953125 L 15.421875 -23.90625 L 25.6875 -23.90625 C 26.351562 -23.90625 26.832031 -23.753906 27.125 -23.453125 C 27.425781 -23.148438 27.578125 -22.664062 27.578125 -22 L 27.578125 -16.375 C 27.578125 -15.707031 27.425781 -15.222656 27.125 -14.921875 C 26.832031 -14.617188 26.351562 -14.46875 25.6875 -14.46875 L 15.421875 -14.46875 L 15.421875 -9.953125 L 29.953125 -9.953125 C 30.617188 -9.953125 31.097656 -9.800781 31.390625 -9.5 C 31.691406 -9.195312 31.84375 -8.710938 31.84375 -8.046875 L 31.84375 -1.890625 C 31.84375 -1.222656 31.691406 -0.738281 31.390625 -0.4375 C 31.097656 -0.144531 30.617188 0 29.953125 0 Z M 29.953125 0 "/></g></g></g><g fill="#000000" fill-opacity="1"><g transform="translate(86.474224, 258.740256)"><g><path d="M 0.3125 4.328125 C -0.394531 4.328125 -1.007812 4.253906 -1.53125 4.109375 L -1.53125 1.515625 C -0.988281 1.640625 -0.5 1.703125 -0.0625 1.703125 C 0.625 1.703125 1.113281 1.488281 1.40625 1.0625 C 1.707031 0.644531 1.859375 -0.015625 1.859375 -0.921875 L 1.859375 -14.71875 L 4.96875 -14.71875 L 4.96875 -0.953125 C 4.96875 0.765625 4.570312 2.070312 3.78125 2.96875 C 3 3.875 1.84375 4.328125 0.3125 4.328125 Z M 0.3125 4.328125 "/></g></g></g><g fill="#000000" fill-opacity="1"><g transform="translate(93.295751, 258.740256)"><g><path d="M 9.578125 0 L 9.171875 -1.4375 L 9 -1.4375 C 8.675781 -0.914062 8.210938 -0.507812 7.609375 -0.21875 C 7.003906 0.0625 6.316406 0.203125 5.546875 0.203125 C 4.222656 0.203125 3.222656 -0.148438 2.546875 -0.859375 C 1.878906 -1.566406 1.546875 -2.585938 1.546875 -3.921875 L 1.546875 -11.25 L 4.625 -11.25 L 4.625 -4.671875 C 4.625 -3.867188 4.765625 -3.265625 5.046875 -2.859375 C 5.335938 -2.453125 5.800781 -2.25 6.4375 -2.25 C 7.289062 -2.25 7.90625 -2.535156 8.28125 -3.109375 C 8.664062 -3.679688 8.859375 -4.628906 8.859375 -5.953125 L 8.859375 -11.25 L 11.9375 -11.25 L 11.9375 0 Z M 9.578125 0 "/></g></g></g><g fill="#000000" fill-opacity="1"><g transform="translate(106.838193, 258.740256)"><g><path d="M 9.453125 -3.34375 C 9.453125 -2.1875 9.050781 -1.304688 8.25 -0.703125 C 7.445312 -0.0976562 6.25 0.203125 4.65625 0.203125 C 3.84375 0.203125 3.144531 0.144531 2.5625 0.03125 C 1.988281 -0.0703125 1.453125 -0.234375 0.953125 -0.453125 L 0.953125 -2.984375 C 1.515625 -2.722656 2.148438 -2.5 2.859375 -2.3125 C 3.578125 -2.132812 4.210938 -2.046875 4.765625 -2.046875 C 5.878906 -2.046875 6.4375 -2.367188 6.4375 -3.015625 C 6.4375 -3.253906 6.359375 -3.445312 6.203125 -3.59375 C 6.054688 -3.75 5.800781 -3.921875 5.4375 -4.109375 C 5.082031 -4.296875 4.601562 -4.519531 4 -4.78125 C 3.132812 -5.144531 2.5 -5.476562 2.09375 -5.78125 C 1.6875 -6.09375 1.390625 -6.445312 1.203125 -6.84375 C 1.015625 -7.25 0.921875 -7.742188 0.921875 -8.328125 C 0.921875 -9.328125 1.304688 -10.097656 2.078125 -10.640625 C 2.859375 -11.191406 3.960938 -11.46875 5.390625 -11.46875 C 6.742188 -11.46875 8.0625 -11.171875 9.34375 -10.578125 L 8.40625 -8.359375 C 7.84375 -8.597656 7.316406 -8.796875 6.828125 -8.953125 C 6.335938 -9.109375 5.835938 -9.1875 5.328125 -9.1875 C 4.421875 -9.1875 3.96875 -8.941406 3.96875 -8.453125 C 3.96875 -8.179688 4.113281 -7.941406 4.40625 -7.734375 C 4.695312 -7.535156 5.335938 -7.238281 6.328125 -6.84375 C 7.203125 -6.488281 7.84375 -6.15625 8.25 -5.84375 C 8.664062 -5.539062 8.96875 -5.1875 9.15625 -4.78125 C 9.351562 -4.375 9.453125 -3.894531 9.453125 -3.34375 Z M 9.453125 -3.34375 "/></g></g></g><g fill="#000000" fill-opacity="1"><g transform="translate(117.080546, 258.740256)"><g><path d="M 6.34375 -2.25 C 6.882812 -2.25 7.53125 -2.363281 8.28125 -2.59375 L 8.28125 -0.3125 C 7.519531 0.03125 6.582031 0.203125 5.46875 0.203125 C 4.238281 0.203125 3.34375 -0.101562 2.78125 -0.71875 C 2.21875 -1.34375 1.9375 -2.273438 1.9375 -3.515625 L 1.9375 -8.953125 L 0.46875 -8.953125 L 0.46875 -10.25 L 2.15625 -11.265625 L 3.046875 -13.640625 L 5.015625 -13.640625 L 5.015625 -11.25 L 8.15625 -11.25 L 8.15625 -8.953125 L 5.015625 -8.953125 L 5.015625 -3.515625 C 5.015625 -3.085938 5.132812 -2.769531 5.375 -2.5625 C 5.625 -2.351562 5.945312 -2.25 6.34375 -2.25 Z M 6.34375 -2.25 "/></g></g></g><g fill="#000000" fill-opacity="1"><g transform="translate(126.025002, 258.740256)"><g/></g></g><g fill="#000000" fill-opacity="1"><g transform="translate(131.377587, 258.740256)"><g><path d="M 7.53125 0 L 4.40625 0 L 4.40625 -12.109375 L 0.40625 -12.109375 L 0.40625 -14.71875 L 11.515625 -14.71875 L 11.515625 -12.109375 L 7.53125 -12.109375 Z M 7.53125 0 "/></g></g></g><g fill="#000000" fill-opacity="1"><g transform="translate(143.310229, 258.740256)"><g><path d="M 8.75 0 L 8.15625 -1.53125 L 8.078125 -1.53125 C 7.566406 -0.875 7.035156 -0.421875 6.484375 -0.171875 C 5.941406 0.078125 5.226562 0.203125 4.34375 0.203125 C 3.269531 0.203125 2.421875 -0.101562 1.796875 -0.71875 C 1.171875 -1.34375 0.859375 -2.222656 0.859375 -3.359375 C 0.859375 -4.554688 1.273438 -5.4375 2.109375 -6 C 2.953125 -6.570312 4.210938 -6.882812 5.890625 -6.9375 L 7.84375 -7 L 7.84375 -7.5 C 7.84375 -8.632812 7.257812 -9.203125 6.09375 -9.203125 C 5.195312 -9.203125 4.140625 -8.929688 2.921875 -8.390625 L 1.90625 -10.46875 C 3.207031 -11.144531 4.644531 -11.484375 6.21875 -11.484375 C 7.726562 -11.484375 8.882812 -11.15625 9.6875 -10.5 C 10.488281 -9.84375 10.890625 -8.84375 10.890625 -7.5 L 10.890625 0 Z M 7.84375 -5.21875 L 6.65625 -5.171875 C 5.769531 -5.140625 5.109375 -4.976562 4.671875 -4.6875 C 4.234375 -4.394531 4.015625 -3.945312 4.015625 -3.34375 C 4.015625 -2.476562 4.507812 -2.046875 5.5 -2.046875 C 6.21875 -2.046875 6.785156 -2.25 7.203125 -2.65625 C 7.628906 -3.0625 7.84375 -3.601562 7.84375 -4.28125 Z M 7.84375 -5.21875 "/></g></g></g><g fill="#000000" fill-opacity="1"><g transform="translate(155.756001, 258.740256)"><g><path d="M 4.5625 -6.125 L 5.890625 -7.828125 L 9.046875 -11.25 L 12.515625 -11.25 L 8.046875 -6.375 L 12.78125 0 L 9.234375 0 L 6 -4.5625 L 4.671875 -3.5 L 4.671875 0 L 1.609375 0 L 1.609375 -15.65625 L 4.671875 -15.65625 L 4.671875 -8.671875 L 4.515625 -6.125 Z M 4.5625 -6.125 "/></g></g></g><g fill="#000000" fill-opacity="1"><g transform="translate(168.533788, 258.740256)"><g><path d="M 6.265625 -9.28125 C 5.617188 -9.28125 5.109375 -9.070312 4.734375 -8.65625 C 4.367188 -8.25 4.160156 -7.664062 4.109375 -6.90625 L 8.40625 -6.90625 C 8.394531 -7.664062 8.195312 -8.25 7.8125 -8.65625 C 7.4375 -9.070312 6.921875 -9.28125 6.265625 -9.28125 Z M 6.703125 0.203125 C 4.890625 0.203125 3.472656 -0.296875 2.453125 -1.296875 C 1.429688 -2.296875 0.921875 -3.710938 0.921875 -5.546875 C 0.921875 -7.429688 1.390625 -8.890625 2.328125 -9.921875 C 3.273438 -10.953125 4.582031 -11.46875 6.25 -11.46875 C 7.84375 -11.46875 9.082031 -11.015625 9.96875 -10.109375 C 10.851562 -9.203125 11.296875 -7.945312 11.296875 -6.34375 L 11.296875 -4.859375 L 4.03125 -4.859375 C 4.0625 -3.984375 4.316406 -3.300781 4.796875 -2.8125 C 5.285156 -2.320312 5.96875 -2.078125 6.84375 -2.078125 C 7.519531 -2.078125 8.160156 -2.144531 8.765625 -2.28125 C 9.367188 -2.425781 10 -2.65625 10.65625 -2.96875 L 10.65625 -0.59375 C 10.125 -0.320312 9.550781 -0.125 8.9375 0 C 8.320312 0.132812 7.578125 0.203125 6.703125 0.203125 Z M 6.703125 0.203125 "/></g></g></g><g fill="#000000" fill-opacity="1"><g transform="translate(180.7079, 258.740256)"><g/></g></g><g fill="#000000" fill-opacity="1"><g transform="translate(186.060485, 258.740256)"><g><path d="M 6.4375 -8.65625 L 9.5 -14.71875 L 12.859375 -14.71875 L 7.984375 -5.71875 L 7.984375 0 L 4.875 0 L 4.875 -5.625 L 0 -14.71875 L 3.375 -14.71875 Z M 6.4375 -8.65625 "/></g></g></g><g fill="#000000" fill-opacity="1"><g transform="translate(198.918762, 258.740256)"><g><path d="M 4.0625 -5.640625 C 4.0625 -4.523438 4.242188 -3.679688 4.609375 -3.109375 C 4.972656 -2.546875 5.566406 -2.265625 6.390625 -2.265625 C 7.210938 -2.265625 7.800781 -2.546875 8.15625 -3.109375 C 8.507812 -3.679688 8.6875 -4.523438 8.6875 -5.640625 C 8.6875 -6.753906 8.503906 -7.585938 8.140625 -8.140625 C 7.785156 -8.703125 7.195312 -8.984375 6.375 -8.984375 C 5.550781 -8.984375 4.957031 -8.707031 4.59375 -8.15625 C 4.238281 -7.601562 4.0625 -6.765625 4.0625 -5.640625 Z M 11.828125 -5.640625 C 11.828125 -3.804688 11.34375 -2.375 10.375 -1.34375 C 9.414062 -0.3125 8.070312 0.203125 6.34375 0.203125 C 5.269531 0.203125 4.316406 -0.03125 3.484375 -0.5 C 2.660156 -0.976562 2.023438 -1.660156 1.578125 -2.546875 C 1.140625 -3.429688 0.921875 -4.460938 0.921875 -5.640625 C 0.921875 -7.484375 1.398438 -8.914062 2.359375 -9.9375 C 3.316406 -10.957031 4.664062 -11.46875 6.40625 -11.46875 C 7.488281 -11.46875 8.441406 -11.226562 9.265625 -10.75 C 10.085938 -10.28125 10.71875 -9.609375 11.15625 -8.734375 C 11.601562 -7.859375 11.828125 -6.828125 11.828125 -5.640625 Z M 11.828125 -5.640625 "/></g></g></g><g fill="#000000" fill-opacity="1"><g transform="translate(211.676427, 258.740256)"><g><path d="M 9.578125 0 L 9.171875 -1.4375 L 9 -1.4375 C 8.675781 -0.914062 8.210938 -0.507812 7.609375 -0.21875 C 7.003906 0.0625 6.316406 0.203125 5.546875 0.203125 C 4.222656 0.203125 3.222656 -0.148438 2.546875 -0.859375 C 1.878906 -1.566406 1.546875 -2.585938 1.546875 -3.921875 L 1.546875 -11.25 L 4.625 -11.25 L 4.625 -4.671875 C 4.625 -3.867188 4.765625 -3.265625 5.046875 -2.859375 C 5.335938 -2.453125 5.800781 -2.25 6.4375 -2.25 C 7.289062 -2.25 7.90625 -2.535156 8.28125 -3.109375 C 8.664062 -3.679688 8.859375 -4.628906 8.859375 -5.953125 L 8.859375 -11.25 L 11.9375 -11.25 L 11.9375 0 Z M 9.578125 0 "/></g></g></g><g fill="#000000" fill-opacity="1"><g transform="translate(225.218869, 258.740256)"><g><path d="M 7.890625 -11.46875 C 8.304688 -11.46875 8.648438 -11.4375 8.921875 -11.375 L 8.6875 -8.5 C 8.445312 -8.5625 8.144531 -8.59375 7.78125 -8.59375 C 6.800781 -8.59375 6.035156 -8.335938 5.484375 -7.828125 C 4.941406 -7.328125 4.671875 -6.625 4.671875 -5.71875 L 4.671875 0 L 1.609375 0 L 1.609375 -11.25 L 3.9375 -11.25 L 4.390625 -9.359375 L 4.53125 -9.359375 C 4.882812 -9.992188 5.359375 -10.503906 5.953125 -10.890625 C 6.546875 -11.273438 7.191406 -11.46875 7.890625 -11.46875 Z M 7.890625 -11.46875 "/></g></g></g><g fill="#000000" fill-opacity="1"><g transform="translate(234.575831, 258.740256)"><g/></g></g><g fill="#000000" fill-opacity="1"><g transform="translate(239.928416, 258.740256)"><g><path d="M 7.53125 0 L 4.40625 0 L 4.40625 -12.109375 L 0.40625 -12.109375 L 0.40625 -14.71875 L 11.515625 -14.71875 L 11.515625 -12.109375 L 7.53125 -12.109375 Z M 7.53125 0 "/></g></g></g><g fill="#000000" fill-opacity="1"><g transform="translate(251.861058, 258.740256)"><g><path d="M 1.484375 -14.15625 C 1.484375 -15.15625 2.039062 -15.65625 3.15625 -15.65625 C 4.257812 -15.65625 4.8125 -15.15625 4.8125 -14.15625 C 4.8125 -13.675781 4.671875 -13.304688 4.390625 -13.046875 C 4.117188 -12.785156 3.707031 -12.65625 3.15625 -12.65625 C 2.039062 -12.65625 1.484375 -13.15625 1.484375 -14.15625 Z M 4.671875 0 L 1.609375 0 L 1.609375 -11.25 L 4.671875 -11.25 Z M 4.671875 0 "/></g></g></g><g fill="#000000" fill-opacity="1"><g transform="translate(258.149345, 258.740256)"><g><path d="M 11.6875 0 L 8.609375 0 L 8.609375 -6.578125 C 8.609375 -7.378906 8.472656 -7.984375 8.203125 -8.390625 C 7.929688 -8.796875 7.503906 -9 6.921875 -9 C 6.140625 -9 5.566406 -8.710938 5.203125 -8.140625 C 4.847656 -7.566406 4.671875 -6.617188 4.671875 -5.296875 L 4.671875 0 L 1.609375 0 L 1.609375 -11.25 L 3.953125 -11.25 L 4.375 -9.8125 L 4.53125 -9.8125 C 4.832031 -10.332031 5.269531 -10.738281 5.84375 -11.03125 C 6.414062 -11.320312 7.070312 -11.46875 7.8125 -11.46875 C 9.488281 -11.46875 10.628906 -10.914062 11.234375 -9.8125 L 11.5 -9.8125 C 11.800781 -10.332031 12.242188 -10.738281 12.828125 -11.03125 C 13.421875 -11.320312 14.085938 -11.46875 14.828125 -11.46875 C 16.097656 -11.46875 17.0625 -11.140625 17.71875 -10.484375 C 18.375 -9.828125 18.703125 -8.78125 18.703125 -7.34375 L 18.703125 0 L 15.625 0 L 15.625 -6.578125 C 15.625 -7.378906 15.484375 -7.984375 15.203125 -8.390625 C 14.929688 -8.796875 14.503906 -9 13.921875 -9 C 13.171875 -9 12.609375 -8.726562 12.234375 -8.1875 C 11.867188 -7.65625 11.6875 -6.804688 11.6875 -5.640625 Z M 11.6875 0 "/></g></g></g><g fill="#000000" fill-opacity="1"><g transform="translate(278.382534, 258.740256)"><g><path d="M 6.265625 -9.28125 C 5.617188 -9.28125 5.109375 -9.070312 4.734375 -8.65625 C 4.367188 -8.25 4.160156 -7.664062 4.109375 -6.90625 L 8.40625 -6.90625 C 8.394531 -7.664062 8.195312 -8.25 7.8125 -8.65625 C 7.4375 -9.070312 6.921875 -9.28125 6.265625 -9.28125 Z M 6.703125 0.203125 C 4.890625 0.203125 3.472656 -0.296875 2.453125 -1.296875 C 1.429688 -2.296875 0.921875 -3.710938 0.921875 -5.546875 C 0.921875 -7.429688 1.390625 -8.890625 2.328125 -9.921875 C 3.273438 -10.953125 4.582031 -11.46875 6.25 -11.46875 C 7.84375 -11.46875 9.082031 -11.015625 9.96875 -10.109375 C 10.851562 -9.203125 11.296875 -7.945312 11.296875 -6.34375 L 11.296875 -4.859375 L 4.03125 -4.859375 C 4.0625 -3.984375 4.316406 -3.300781 4.796875 -2.8125 C 5.285156 -2.320312 5.96875 -2.078125 6.84375 -2.078125 C 7.519531 -2.078125 8.160156 -2.144531 8.765625 -2.28125 C 9.367188 -2.425781 10 -2.65625 10.65625 -2.96875 L 10.65625 -0.59375 C 10.125 -0.320312 9.550781 -0.125 8.9375 0 C 8.320312 0.132812 7.578125 0.203125 6.703125 0.203125 Z M 6.703125 0.203125 "/></g></g></g><g fill="#000000" fill-opacity="1"><g transform="translate(290.556636, 258.740256)"><g><path d="M 1.171875 -1.4375 C 1.171875 -2 1.320312 -2.425781 1.625 -2.71875 C 1.925781 -3.007812 2.367188 -3.15625 2.953125 -3.15625 C 3.503906 -3.15625 3.929688 -3.003906 4.234375 -2.703125 C 4.546875 -2.410156 4.703125 -1.988281 4.703125 -1.4375 C 4.703125 -0.90625 4.546875 -0.488281 4.234375 -0.1875 C 3.929688 0.113281 3.503906 0.265625 2.953125 0.265625 C 2.390625 0.265625 1.953125 0.117188 1.640625 -0.171875 C 1.328125 -0.472656 1.171875 -0.894531 1.171875 -1.4375 Z M 1.171875 -1.4375 "/></g></g></g><g fill="#000000" fill-opacity="1"><g transform="translate(296.432406, 258.740256)"><g><path d="M 1.171875 -1.4375 C 1.171875 -2 1.320312 -2.425781 1.625 -2.71875 C 1.925781 -3.007812 2.367188 -3.15625 2.953125 -3.15625 C 3.503906 -3.15625 3.929688 -3.003906 4.234375 -2.703125 C 4.546875 -2.410156 4.703125 -1.988281 4.703125 -1.4375 C 4.703125 -0.90625 4.546875 -0.488281 4.234375 -0.1875 C 3.929688 0.113281 3.503906 0.265625 2.953125 0.265625 C 2.390625 0.265625 1.953125 0.117188 1.640625 -0.171875 C 1.328125 -0.472656 1.171875 -0.894531 1.171875 -1.4375 Z M 1.171875 -1.4375 "/></g></g></g></svg>