<?xml version="1.0" standalone="no"?>
<!DOCTYPE svg PUBLIC "-//W3C//DTD SVG 1.1//EN" "http://www.w3.org/Graphics/SVG/1.1/DTD/svg11.dtd">
<svg xmlns="http://www.w3.org/2000/svg" width="512" height="512" viewBox="0 0 512 512" style="overflow: visible;"><defs data-uid="o_f7ik7hnmc_91"/><path text-anchor="start" offset="0" fill="#000000" space="preserve" font-scale="contain" font-size="48" font-family="Bungee" text="Sportime" font-style="normal" font-weight="400" data-fl-textpath="" transform="matrix(1.6653572542123705, 0, 0, 1.6653572542123705, 129.43490154116998, 166.56904414867176)" letter-spacing="0" stroke-width="1" stroke="#000000" path="M0 0C43.584 0 130.752 0 174.336 0" dy="7" data-uid="o_f7ik7hnmc_142" d="M 12.67 7L 12.67 7L 2.73 7Q 2.14 7  1.87 6.73Q 1.6 6.47  1.6 5.87L 1.6 5.87L 1.6 2.19Q 1.6 1.59  1.87 1.33Q 2.14 1.06  2.73 1.06L 2.73 1.06L 11.19 1.06Q 11.6 1.06  11.8 0.79Q 12.01 0.52  12.01 0.15L 12.01 0.15Q 12.01-0.39  11.8-0.64Q 11.6-0.89  11.19-0.92L 11.19-0.92L 6.48-1.58Q 4.28-1.9  2.94-3.03Q 1.6-4.16  1.6-6.8L 1.6-6.8L 1.6-10.1Q 1.6-12.77  3.33-14.2Q 5.06-15.63  8.11-15.63L 8.11-15.63L 16.91-15.63Q 17.51-15.63  17.78-15.37Q 18.04-15.1  18.04-14.5L 18.04-14.5L 18.04-10.76Q 18.04-10.16  17.78-9.9Q 17.51-9.63  16.91-9.63L 16.91-9.63L 9.59-9.63Q 9.18-9.63  8.96-9.36Q 8.74-9.09  8.74-8.69L 8.74-8.69Q 8.74-8.28  8.96-7.99Q 9.18-7.71  9.59-7.68L 9.59-7.68L 14.27-7.05Q 16.47-6.74  17.82-5.61Q 19.18-4.47  19.18-1.83L 19.18-1.83L 19.18 1.47Q 19.18 4.14  17.43 5.57Q 15.69 7  12.67 7ZM 28.602 7L 28.602 7L 23.732 7Q 23.132 7  22.872 6.73Q 22.602 6.47  22.602 5.87L 22.602 5.87L 22.602-14.5Q 22.602-15.1  22.872-15.37Q 23.132-15.63  23.732-15.63L 23.732-15.63L 33.352-15.63Q 37.622-15.63  39.202-13.94Q 40.772-12.24  40.772-9.5L 40.772-9.5L 40.772-5.48Q 40.772-2.74  39.202-1.05Q 37.622 0.65  33.352 0.65L 33.352 0.65L 29.732 0.65L 29.732 5.87Q 29.732 6.47  29.472 6.73Q 29.202 7  28.602 7ZM 32.502-9.75L 29.672-9.75L 29.672-5.01L 32.502-5.01Q 33.412-5.01  33.702-5.48Q 33.982-5.95  33.982-6.55L 33.982-6.55L 33.982-8.21Q 33.982-8.81  33.702-9.28Q 33.412-9.75  32.502-9.75L 32.502-9.75ZM 63.211-9.66L 63.211 1.06Q 63.211 2.5  62.791 3.68Q 62.371 4.86  61.281 5.7Q 60.201 6.53  58.291 7Q 56.391 7.47  53.471 7.47L 53.471 7.47Q 50.551 7.47  48.631 7Q 46.711 6.53  45.631 5.7Q 44.541 4.86  44.121 3.68Q 43.691 2.5  43.691 1.06L 43.691 1.06L 43.691-9.66Q 43.691-11.11  44.121-12.29Q 44.541-13.46  45.631-14.31Q 46.711-15.16  48.631-15.63Q 50.551-16.1  53.471-16.1L 53.471-16.1Q 56.391-16.1  58.291-15.63Q 60.201-15.16  61.281-14.31Q 62.371-13.46  62.791-12.29Q 63.211-11.11  63.211-9.66L 63.211-9.66ZM 50.831-8.53L 50.831-0.07Q 50.831 0.56  51.301 0.98Q 51.771 1.4  53.471 1.4L 53.471 1.4Q 55.171 1.4  55.641 0.98Q 56.111 0.56  56.111-0.07L 56.111-0.07L 56.111-8.53Q 56.111-9.13  55.641-9.55Q 55.171-9.97  53.471-9.97L 53.471-9.97Q 51.771-9.97  51.301-9.55Q 50.831-9.13  50.831-8.53L 50.831-8.53ZM 76.668-9.97L 74.308-9.97L 74.308-5.95L 76.668-5.95Q 77.488-5.95  77.768-6.38Q 78.048-6.8  78.048-7.43L 78.048-7.43L 78.048-8.5Q 78.048-9.13  77.768-9.55Q 77.488-9.97  76.668-9.97L 76.668-9.97ZM 73.178 7L 73.178 7L 68.338 7Q 67.738 7  67.478 6.73Q 67.208 6.47  67.208 5.87L 67.208 5.87L 67.208-14.5Q 67.208-15.1  67.478-15.37Q 67.738-15.63  68.338-15.63L 68.338-15.63L 78.808-15.63Q 82.328-15.63  83.658-14.17Q 84.998-12.71  84.998-10.38L 84.998-10.38L 84.998-8.94Q 84.998-7.62  84.608-6.69Q 84.218-5.76  83.238-5.35L 83.238-5.35Q 84.938-5.17  85.988-3.97Q 87.038-2.78  87.038-0.8L 87.038-0.8L 87.038 5.87Q 87.038 6.47  86.778 6.73Q 86.508 7  85.908 7L 85.908 7L 81.038 7Q 80.438 7  80.178 6.73Q 79.908 6.47  79.908 5.87L 79.908 5.87L 79.908 1.06Q 79.908 0.37  79.638 0.04Q 79.368-0.29  78.708-0.29L 78.708-0.29L 74.308-0.29L 74.308 5.87Q 74.308 6.47  74.048 6.73Q 73.778 7  73.178 7ZM 100.311 7L 100.311 7L 95.211 7Q 94.621 7  94.351 6.73Q 94.081 6.47  94.081 5.87L 94.081 5.87L 94.081-9.57L 89.461-9.57Q 88.861-9.57  88.601-9.83Q 88.331-10.1  88.331-10.7L 88.331-10.7L 88.331-14.5Q 88.331-15.1  88.601-15.37Q 88.861-15.63  89.461-15.63L 89.461-15.63L 106.061-15.63Q 106.661-15.63  106.921-15.37Q 107.191-15.1  107.191-14.5L 107.191-14.5L 107.191-10.7Q 107.191-10.1  106.921-9.83Q 106.661-9.57  106.061-9.57L 106.061-9.57L 101.441-9.57L 101.441 5.87Q 101.441 6.47  101.171 6.73Q 100.901 7  100.311 7ZM 124.262 7L 110.872 7Q 110.272 7  110.002 6.73Q 109.742 6.47  109.742 5.87L 109.742 5.87L 109.742 2.13Q 109.742 1.53  110.002 1.26Q 110.272 1  110.872 1L 110.872 1L 113.982 1L 113.982-9.57L 110.872-9.57Q 110.272-9.57  110.002-9.83Q 109.742-10.1  109.742-10.7L 109.742-10.7L 109.742-14.5Q 109.742-15.1  110.002-15.37Q 110.272-15.63  110.872-15.63L 110.872-15.63L 124.262-15.63Q 124.862-15.63  125.122-15.37Q 125.392-15.1  125.392-14.5L 125.392-14.5L 125.392-10.7Q 125.392-10.1  125.122-9.83Q 124.862-9.57  124.262-9.57L 124.262-9.57L 121.212-9.57L 121.212 1L 124.262 1Q 124.862 1  125.122 1.26Q 125.392 1.53  125.392 2.13L 125.392 2.13L 125.392 5.87Q 125.392 6.47  125.122 6.73Q 124.862 7  124.262 7L 124.262 7ZM 135.07 7L 135.07 7L 130.39 7Q 129.79 7  129.53 6.73Q 129.26 6.47  129.26 5.87L 129.26 5.87L 129.26-14.5Q 129.26-15.1  129.53-15.37Q 129.79-15.63  130.39-15.63L 130.39-15.63L 135.45-15.63Q 135.95-15.63  136.28-15.41Q 136.61-15.19  136.9-14.69L 136.9-14.69L 139.73-9.57Q 139.88-9.28  139.99-9.16Q 140.1-9.03  140.29-9.03L 140.29-9.03L 140.58-9.03Q 140.76-9.03  140.87-9.16Q 140.98-9.28  141.14-9.57L 141.14-9.57L 143.94-14.69Q 144.22-15.19  144.55-15.41Q 144.88-15.63  145.38-15.63L 145.38-15.63L 150.48-15.63Q 151.07-15.63  151.34-15.37Q 151.61-15.1  151.61-14.5L 151.61-14.5L 151.61 5.87Q 151.61 6.47  151.34 6.73Q 151.07 7  150.48 7L 150.48 7L 145.64 7Q 145.04 7  144.77 6.73Q 144.5 6.47  144.5 5.87L 144.5 5.87L 144.5-5.2L 142.65-1.77Q 142.37-1.24  141.97-1Q 141.58-0.76  140.98-0.76L 140.98-0.76L 139.73-0.76Q 139.13-0.76  138.74-1Q 138.34-1.24  138.06-1.77L 138.06-1.77L 136.21-5.2L 136.21 5.87Q 136.21 6.47  135.94 6.73Q 135.67 7  135.07 7ZM 171.668 7L 171.668 7L 157.078 7Q 156.478 7  156.218 6.73Q 155.948 6.47  155.948 5.87L 155.948 5.87L 155.948-14.5Q 155.948-15.1  156.218-15.37Q 156.478-15.63  157.078-15.63L 157.078-15.63L 171.668-15.63Q 172.258-15.63  172.528-15.37Q 172.798-15.1  172.798-14.5L 172.798-14.5L 172.798-10.82Q 172.798-10.23  172.528-9.96Q 172.258-9.69  171.668-9.69L 171.668-9.69L 162.988-9.69L 162.988-7.27L 169.118-7.27Q 169.718-7.27  169.978-7Q 170.248-6.74  170.248-6.14L 170.248-6.14L 170.248-2.78Q 170.248-2.18  169.978-1.91Q 169.718-1.64  169.118-1.64L 169.118-1.64L 162.988-1.64L 162.988 1.06L 171.668 1.06Q 172.258 1.06  172.528 1.33Q 172.798 1.59  172.798 2.19L 172.798 2.19L 172.798 5.87Q 172.798 6.47  172.528 6.73Q 172.258 7  171.668 7Z"/><g transform="matrix(6.044209069750902, 0, 0, 2.690092850862031, 130.55069092928605, 133.07276630494653)" fill="rgba(27,152,135,1)" stroke="rgba(27,152,135,1)" stroke-width="0" data-uid="o_f7ik7hnmc_143"><path d="M0 18.791v10h47.582v-10H0z M45.582 26.791H2v-6h43.582V26.791z" transform="matrix(1, 0, 0, 1, 0, 0)" fill="rgba(27,152,135,1)" stroke="rgba(27,152,135,1)" stroke-width="0" data-uid="o_f7ik7hnmc_144"/><path transform="matrix(1, 0, 0, 1, 0, 0)" fill="rgba(27,152,135,1)" stroke="rgba(27,152,135,1)" stroke-width="0" data-type="rect" data-x="3.581" data-y="21.988" data-width="29.417" data-height="3.605" d="M3.581 21.988H32.998000000000005 V25.593 H3.581 Z" data-uid="o_f7ik7hnmc_145"/></g><path text="Just take your time." fill="#000000" space="preserve" text-anchor="middle" offset="0.5" font-scale="contain" font-size="25" font-family="Bungee" transform="matrix(0.6645086260750612, 0, 0, 0.6557395259522151, 273.82772803062585, 229.54191541937087)" font-style="normal" font-weight="400" data-uid="o_f7ik7hnmc_159" data-fl-textpath="" d="M-136.775-17.1L-136.775-4.73Q-136.775-3.58 -137.095-2.64Q-137.425-1.7 -138.235-1.04Q-139.045-0.38 -140.475 0Q-141.895 0.38 -144.095 0.38L-144.095 0.38Q-146.275 0.38 -147.685 0Q-149.095-0.38 -149.915-1.04Q-150.725-1.7 -151.035-2.64Q-151.345-3.58 -151.345-4.73L-151.345-4.73L-151.345-8.78Q-151.345-9.25 -151.135-9.46Q-150.925-9.68 -150.445-9.68L-150.445-9.68L-146.825-9.68Q-146.345-9.68 -146.135-9.46Q-145.925-9.25 -145.925-8.78L-145.925-8.78L-145.925-5.73Q-145.925-5.23 -145.615-4.89Q-145.295-4.55 -144.155-4.55L-144.155-4.55Q-143.075-4.55 -142.785-4.89Q-142.495-5.23 -142.495-5.73L-142.495-5.73L-142.495-17.1Q-142.495-17.57 -142.285-17.79Q-142.075-18 -141.595-18L-141.595-18L-137.675-18Q-137.195-18 -136.985-17.79Q-136.775-17.57 -136.775-17.1L-136.775-17.1ZM-118.125-17.1L-118.125-4.73Q-118.125-3.58 -118.465-2.64Q-118.795-1.7 -119.665-1.04Q-120.525-0.38 -122.025 0Q-123.525 0.38 -125.845 0.38L-125.845 0.38Q-128.175 0.38 -129.675 0Q-131.175-0.38 -132.035-1.04Q-132.905-1.7 -133.235-2.64Q-133.575-3.58 -133.575-4.73L-133.575-4.73L-133.575-17.1Q-133.575-17.57 -133.365-17.79Q-133.155-18 -132.675-18L-132.675-18L-128.745-18Q-128.275-18 -128.065-17.79Q-127.845-17.57 -127.845-17.1L-127.845-17.1L-127.845-5.7Q-127.845-5.2 -127.475-4.86Q-127.095-4.53 -125.795-4.53L-125.795-4.53Q-124.475-4.53 -124.095-4.86Q-123.725-5.2 -123.725-5.7L-123.725-5.7L-123.725-17.1Q-123.725-17.57 -123.515-17.79Q-123.295-18 -122.825-18L-122.825-18L-119.025-18Q-118.545-18 -118.335-17.79Q-118.125-17.57 -118.125-17.1L-118.125-17.1ZM-106.445 0L-106.445 0L-114.345 0Q-114.825 0 -115.035-0.21Q-115.245-0.43 -115.245-0.9L-115.245-0.9L-115.245-3.83Q-115.245-4.3 -115.035-4.51Q-114.825-4.73 -114.345-4.73L-114.345-4.73L-107.625-4.73Q-107.305-4.73 -107.135-4.94Q-106.975-5.15 -106.975-5.45L-106.975-5.45Q-106.975-5.88 -107.135-6.08Q-107.305-6.28 -107.625-6.3L-107.625-6.3L-111.375-6.83Q-113.125-7.08 -114.185-7.98Q-115.245-8.88 -115.245-10.98L-115.245-10.98L-115.245-13.6Q-115.245-15.73 -113.875-16.86Q-112.495-18 -110.075-18L-110.075-18L-103.075-18Q-102.595-18 -102.385-17.79Q-102.175-17.57 -102.175-17.1L-102.175-17.1L-102.175-14.13Q-102.175-13.65 -102.385-13.44Q-102.595-13.23 -103.075-13.23L-103.075-13.23L-108.895-13.23Q-109.225-13.23 -109.395-13.01Q-109.575-12.8 -109.575-12.48L-109.575-12.48Q-109.575-12.15 -109.395-11.93Q-109.225-11.7 -108.895-11.68L-108.895-11.68L-105.175-11.18Q-103.425-10.93 -102.345-10.03Q-101.275-9.13 -101.275-7.03L-101.275-7.03L-101.275-4.4Q-101.275-2.27 -102.665-1.14Q-104.045 0 -106.445 0ZM-90.295 0L-90.295 0L-94.345 0Q-94.825 0 -95.035-0.21Q-95.245-0.43 -95.245-0.9L-95.245-0.9L-95.245-13.18L-98.925-13.18Q-99.395-13.18 -99.615-13.39Q-99.825-13.6 -99.825-14.08L-99.825-14.08L-99.825-17.1Q-99.825-17.57 -99.615-17.79Q-99.395-18 -98.925-18L-98.925-18L-85.725-18Q-85.245-18 -85.035-17.79Q-84.825-17.57 -84.825-17.1L-84.825-17.1L-84.825-14.08Q-84.825-13.6 -85.035-13.39Q-85.245-13.18 -85.725-13.18L-85.725-13.18L-89.395-13.18L-89.395-0.9Q-89.395-0.43 -89.615-0.21Q-89.825 0 -90.295 0ZM-68.77 0L-68.77 0L-72.82 0Q-73.3 0 -73.51-0.21Q-73.72-0.43 -73.72-0.9L-73.72-0.9L-73.72-13.18L-77.4-13.18Q-77.87-13.18 -78.09-13.39Q-78.3-13.6 -78.3-14.08L-78.3-14.08L-78.3-17.1Q-78.3-17.57 -78.09-17.79Q-77.87-18 -77.4-18L-77.4-18L-64.2-18Q-63.72-18 -63.51-17.79Q-63.3-17.57 -63.3-17.1L-63.3-17.1L-63.3-14.08Q-63.3-13.6 -63.51-13.39Q-63.72-13.18 -64.2-13.18L-64.2-13.18L-67.87-13.18L-67.87-0.9Q-67.87-0.43 -68.09-0.21Q-68.3 0 -68.77 0ZM-55.35-12.75L-55.35-12.75L-56.52-8.95L-52.6-8.95L-53.77-12.75Q-53.87-12.98 -53.99-13.08Q-54.1-13.18 -54.25-13.18L-54.25-13.18L-54.88-13.18Q-55.02-13.18 -55.14-13.08Q-55.25-12.98 -55.35-12.75ZM-56.77-4.4L-56.77-0.9Q-56.77-0.43 -56.99-0.21Q-57.2 0 -57.67 0L-57.67 0L-61.35 0Q-61.82 0 -62.04-0.21Q-62.25-0.43 -62.25-0.9L-62.25-0.9L-62.25-7.5Q-62.25-8.25 -62.01-9.22Q-61.77-10.2 -61.27-11.5L-61.27-11.5L-59.1-17.18Q-58.95-17.6 -58.64-17.8Q-58.32-18 -57.82-18L-57.82-18L-51.1-18Q-50.62-18 -50.31-17.8Q-50-17.6 -49.85-17.18L-49.85-17.18L-47.67-11.5Q-47.17-10.2 -46.94-9.22Q-46.7-8.25 -46.7-7.5L-46.7-7.5L-46.7-0.9Q-46.7-0.43 -46.91-0.21Q-47.12 0 -47.6 0L-47.6 0L-51.37 0Q-51.87 0 -52.11-0.21Q-52.35-0.43 -52.35-0.9L-52.35-0.9L-52.35-4.4L-56.77-4.4ZM-38.85 0L-38.85 0L-42.72 0Q-43.2 0 -43.41-0.21Q-43.62-0.43 -43.62-0.9L-43.62-0.9L-43.62-17.1Q-43.62-17.57 -43.41-17.79Q-43.2-18 -42.72-18L-42.72-18L-38.85-18Q-38.37-18 -38.16-17.79Q-37.95-17.57 -37.95-17.1L-37.95-17.1L-37.95-11.35L-36.95-11.35L-34.37-17.18Q-34.2-17.63 -33.9-17.81Q-33.6-18 -33.12-18L-33.12-18L-29.28-18Q-28.85-18 -28.7-17.79Q-28.55-17.57 -28.72-17.18L-28.72-17.18L-31.27-11.35Q-29.87-11.28 -29.04-10.36Q-28.2-9.45 -28.2-7.95L-28.2-7.95L-28.2-0.9Q-28.2-0.43 -28.41-0.21Q-28.62 0 -29.1 0L-29.1 0L-32.95 0Q-33.42 0 -33.64-0.21Q-33.85-0.43 -33.85-0.9L-33.85-0.9L-33.85-5.78Q-33.85-6.18 -34.05-6.4Q-34.25-6.63 -34.65-6.63L-34.65-6.63L-37.95-6.63L-37.95-0.9Q-37.95-0.43 -38.16-0.21Q-38.37 0 -38.85 0ZM-12.47 0L-12.47 0L-24.07 0Q-24.55 0 -24.76-0.21Q-24.97-0.43 -24.97-0.9L-24.97-0.9L-24.97-17.1Q-24.97-17.57 -24.76-17.79Q-24.55-18 -24.07-18L-24.07-18L-12.47-18Q-12-18 -11.79-17.79Q-11.57-17.57 -11.57-17.1L-11.57-17.1L-11.57-14.18Q-11.57-13.7 -11.79-13.49Q-12-13.28 -12.47-13.28L-12.47-13.28L-19.37-13.28L-19.37-11.35L-14.5-11.35Q-14.02-11.35 -13.81-11.14Q-13.6-10.93 -13.6-10.45L-13.6-10.45L-13.6-7.78Q-13.6-7.3 -13.81-7.09Q-14.02-6.88 -14.5-6.88L-14.5-6.88L-19.37-6.88L-19.37-4.73L-12.47-4.73Q-12-4.73 -11.79-4.51Q-11.57-4.3 -11.57-3.83L-11.57-3.83L-11.57-0.9Q-11.57-0.43 -11.79-0.21Q-12 0 -12.47 0ZM 5.875 0L 5.875 0L 1.825 0Q 1.355 0  1.135-0.21Q 0.925-0.43  0.925-0.9L 0.925-0.9L 0.925-4.1L-2.895-9.22Q-3.475-10 -3.665-10.58Q-3.845-11.15 -3.845-12.3L-3.845-12.3L-3.845-17.1Q-3.845-17.57 -3.635-17.79Q-3.425-18 -2.955-18L-2.955-18L 0.905-18Q 1.375-18  1.585-17.79Q 1.805-17.57  1.805-17.1L 1.805-17.1L 1.805-13Q 1.805-12.75  1.825-12.48Q 1.855-12.2  2.025-11.95L 2.025-11.95L 3.175-10.15Q 3.305-9.93  3.435-9.83Q 3.575-9.73  3.775-9.73L 3.775-9.73L 4.025-9.73Q 4.225-9.73  4.365-9.83Q 4.495-9.93  4.625-10.15L 4.625-10.15L 5.775-11.95Q 5.955-12.2  5.975-12.48Q 6.005-12.75  6.005-13L 6.005-13L 6.005-17.1Q 6.005-17.57  6.215-17.79Q 6.425-18  6.905-18L 6.905-18L 10.625-18Q 11.095-18  11.315-17.79Q 11.525-17.57  11.525-17.1L 11.525-17.1L 11.525-12.3Q 11.525-11.15  11.325-10.58Q 11.125-10  10.575-9.22L 10.575-9.22L 6.775-4.08L 6.775-0.9Q 6.775-0.43  6.565-0.21Q 6.355 0  5.875 0ZM 29.63-13.25L 29.63-4.73Q 29.63-3.58  29.29-2.64Q 28.95-1.7  28.09-1.04Q 27.23-0.38  25.71 0Q 24.2 0.38  21.87 0.38L 21.87 0.38Q 19.55 0.38  18.03 0Q 16.5-0.38  15.64-1.04Q 14.78-1.7  14.44-2.64Q 14.1-3.58  14.1-4.73L 14.1-4.73L 14.1-13.25Q 14.1-14.4  14.44-15.34Q 14.78-16.28  15.64-16.95Q 16.5-17.63  18.03-18Q 19.55-18.38  21.87-18.38L 21.87-18.38Q 24.2-18.38  25.71-18Q 27.23-17.63  28.09-16.95Q 28.95-16.28  29.29-15.34Q 29.63-14.4  29.63-13.25L 29.63-13.25ZM 19.78-12.35L 19.78-5.63Q 19.78-5.13  20.15-4.79Q 20.53-4.45  21.87-4.45L 21.87-4.45Q 23.23-4.45  23.6-4.79Q 23.98-5.13  23.98-5.63L 23.98-5.63L 23.98-12.35Q 23.98-12.83  23.6-13.16Q 23.23-13.5  21.87-13.5L 21.87-13.5Q 20.53-13.5  20.15-13.16Q 19.78-12.83  19.78-12.35L 19.78-12.35ZM 48.125-17.1L 48.125-4.73Q 48.125-3.58  47.785-2.64Q 47.455-1.7  46.585-1.04Q 45.725-0.38  44.225 0Q 42.725 0.38  40.405 0.38L 40.405 0.38Q 38.075 0.38  36.575 0Q 35.075-0.38  34.215-1.04Q 33.345-1.7  33.015-2.64Q 32.675-3.58  32.675-4.73L 32.675-4.73L 32.675-17.1Q 32.675-17.57  32.885-17.79Q 33.095-18  33.575-18L 33.575-18L 37.505-18Q 37.975-18  38.185-17.79Q 38.405-17.57  38.405-17.1L 38.405-17.1L 38.405-5.7Q 38.405-5.2  38.775-4.86Q 39.155-4.53  40.455-4.53L 40.455-4.53Q 41.775-4.53  42.155-4.86Q 42.525-5.2  42.525-5.7L 42.525-5.7L 42.525-17.1Q 42.525-17.57  42.735-17.79Q 42.955-18  43.425-18L 43.425-18L 47.225-18Q 47.705-18  47.915-17.79Q 48.125-17.57  48.125-17.1L 48.125-17.1ZM 58.975-13.5L 57.105-13.5L 57.105-10.3L 58.975-10.3Q 59.625-10.3  59.855-10.64Q 60.075-10.98  60.075-11.48L 60.075-11.48L 60.075-12.33Q 60.075-12.83  59.855-13.16Q 59.625-13.5  58.975-13.5L 58.975-13.5ZM 56.205 0L 56.205 0L 52.355 0Q 51.875 0  51.665-0.21Q 51.455-0.43  51.455-0.9L 51.455-0.9L 51.455-17.1Q 51.455-17.57  51.665-17.79Q 51.875-18  52.355-18L 52.355-18L 60.675-18Q 63.475-18  64.535-16.84Q 65.605-15.68  65.605-13.83L 65.605-13.83L 65.605-12.68Q 65.605-11.63  65.285-10.89Q 64.975-10.15  64.205-9.83L 64.205-9.83Q 65.555-9.68  66.385-8.72Q 67.225-7.78  67.225-6.2L 67.225-6.2L 67.225-0.9Q 67.225-0.43  67.015-0.21Q 66.795 0  66.325 0L 66.325 0L 62.455 0Q 61.975 0  61.765-0.21Q 61.555-0.43  61.555-0.9L 61.555-0.9L 61.555-4.73Q 61.555-5.28  61.335-5.54Q 61.125-5.8  60.605-5.8L 60.605-5.8L 57.105-5.8L 57.105-0.9Q 57.105-0.43  56.885-0.21Q 56.675 0  56.205 0ZM 83.905 0L 83.905 0L 79.855 0Q 79.375 0  79.165-0.21Q 78.955-0.43  78.955-0.9L 78.955-0.9L 78.955-13.18L 75.275-13.18Q 74.805-13.18  74.585-13.39Q 74.375-13.6  74.375-14.08L 74.375-14.08L 74.375-17.1Q 74.375-17.57  74.585-17.79Q 74.805-18  75.275-18L 75.275-18L 88.475-18Q 88.955-18  89.165-17.79Q 89.375-17.57  89.375-17.1L 89.375-17.1L 89.375-14.08Q 89.375-13.6  89.165-13.39Q 88.955-13.18  88.475-13.18L 88.475-13.18L 84.805-13.18L 84.805-0.9Q 84.805-0.43  84.585-0.21Q 84.375 0  83.905 0ZM 102.955 0L 92.305 0Q 91.825 0  91.615-0.21Q 91.405-0.43  91.405-0.9L 91.405-0.9L 91.405-3.88Q 91.405-4.35  91.615-4.56Q 91.825-4.78  92.305-4.78L 92.305-4.78L 94.775-4.78L 94.775-13.18L 92.305-13.18Q 91.825-13.18  91.615-13.39Q 91.405-13.6  91.405-14.08L 91.405-14.08L 91.405-17.1Q 91.405-17.57  91.615-17.79Q 91.825-18  92.305-18L 92.305-18L 102.955-18Q 103.425-18  103.635-17.79Q 103.855-17.57  103.855-17.1L 103.855-17.1L 103.855-14.08Q 103.855-13.6  103.635-13.39Q 103.425-13.18  102.955-13.18L 102.955-13.18L 100.525-13.18L 100.525-4.78L 102.955-4.78Q 103.425-4.78  103.635-4.56Q 103.855-4.35  103.855-3.88L 103.855-3.88L 103.855-0.9Q 103.855-0.43  103.635-0.21Q 103.425 0  102.955 0L 102.955 0ZM 111.55 0L 111.55 0L 107.83 0Q 107.35 0  107.14-0.21Q 106.93-0.43  106.93-0.9L 106.93-0.9L 106.93-17.1Q 106.93-17.57  107.14-17.79Q 107.35-18  107.83-18L 107.83-18L 111.85-18Q 112.25-18  112.51-17.82Q 112.78-17.65  113-17.25L 113-17.25L 115.25-13.18Q 115.38-12.95  115.46-12.85Q 115.55-12.75  115.7-12.75L 115.7-12.75L 115.93-12.75Q 116.08-12.75  116.16-12.85Q 116.25-12.95  116.38-13.18L 116.38-13.18L 118.6-17.25Q 118.83-17.65  119.09-17.82Q 119.35-18  119.75-18L 119.75-18L 123.8-18Q 124.27-18  124.49-17.79Q 124.7-17.57  124.7-17.1L 124.7-17.1L 124.7-0.9Q 124.7-0.43  124.49-0.21Q 124.27 0  123.8 0L 123.8 0L 119.95 0Q 119.48 0  119.26-0.21Q 119.05-0.43  119.05-0.9L 119.05-0.9L 119.05-9.7L 117.58-6.98Q 117.35-6.55  117.04-6.36Q 116.73-6.18  116.25-6.18L 116.25-6.18L 115.25-6.18Q 114.78-6.18  114.46-6.36Q 114.15-6.55  113.92-6.98L 113.92-6.98L 112.45-9.7L 112.45-0.9Q 112.45-0.43  112.24-0.21Q 112.03 0  111.55 0ZM 140.655 0L 140.655 0L 129.055 0Q 128.575 0  128.365-0.21Q 128.155-0.43  128.155-0.9L 128.155-0.9L 128.155-17.1Q 128.155-17.57  128.365-17.79Q 128.575-18  129.055-18L 129.055-18L 140.655-18Q 141.125-18  141.335-17.79Q 141.555-17.57  141.555-17.1L 141.555-17.1L 141.555-14.18Q 141.555-13.7  141.335-13.49Q 141.125-13.28  140.655-13.28L 140.655-13.28L 133.755-13.28L 133.755-11.35L 138.625-11.35Q 139.105-11.35  139.315-11.14Q 139.525-10.93  139.525-10.45L 139.525-10.45L 139.525-7.78Q 139.525-7.3  139.315-7.09Q 139.105-6.88  138.625-6.88L 138.625-6.88L 133.755-6.88L 133.755-4.73L 140.655-4.73Q 141.125-4.73  141.335-4.51Q 141.555-4.3  141.555-3.83L 141.555-3.83L 141.555-0.9Q 141.555-0.43  141.335-0.21Q 141.125 0  140.655 0ZM 150.105 0L 150.105 0L 145.045 0Q 144.575 0  144.365-0.21Q 144.155-0.43  144.155-0.9L 144.155-0.9L 144.155-5.98Q 144.155-6.45  144.365-6.66Q 144.575-6.88  145.045-6.88L 145.045-6.88L 150.105-6.88Q 150.575-6.88  150.785-6.66Q 150.995-6.45  150.995-5.98L 150.995-5.98L 150.995-0.9Q 150.995-0.43  150.785-0.21Q 150.575 0  150.105 0Z"/></svg>